<svg xmlns="http://www.w3.org/2000/svg" version="1.1" xmlns:xlink="http://www.w3.org/1999/xlink" xmlns:svgjs="http://svgjs.dev/svgjs" viewBox="0 0 800 800" opacity="0.52" width="800" height="800"><g stroke-width="1.75" stroke="hsl(261, 60%, 38%)" fill="none"><rect width="33.333333333333336" height="4.157894736842105" x="-16.666666666666668" y="-2.0789473684210527" stroke="none" fill="hsl(261, 60%, 38%)" rx="2.0789473684210527"></rect><rect width="4.157894736842105" height="33.333333333333336" x="-2.0789473684210527" y="-16.666666666666668" stroke="none" fill="hsl(261, 60%, 38%)" rx="2.0789473684210527"></rect><rect width="33.333333333333336" height="4.157894736842105" x="50" y="-2.0789473684210527" stroke="none" fill="hsl(261, 60%, 38%)" rx="2.0789473684210527"></rect><rect width="4.157894736842105" height="33.333333333333336" x="64.58771929824562" y="-16.666666666666668" stroke="none" fill="hsl(261, 60%, 38%)" rx="2.0789473684210527"></rect><rect width="33.333333333333336" height="4.157894736842105" x="116.66666666666667" y="-2.0789473684210527" stroke="none" fill="hsl(261, 60%, 38%)" rx="2.0789473684210527"></rect><rect width="4.157894736842105" height="33.333333333333336" x="131.2543859649123" y="-16.666666666666668" stroke="none" fill="hsl(261, 60%, 38%)" rx="2.0789473684210527"></rect><rect width="33.333333333333336" height="4.157894736842105" x="183.33333333333334" y="-2.0789473684210527" stroke="none" fill="hsl(261, 60%, 38%)" rx="2.0789473684210527"></rect><rect width="4.157894736842105" height="33.333333333333336" x="197.92105263157896" y="-16.666666666666668" stroke="none" fill="hsl(261, 60%, 38%)" rx="2.0789473684210527"></rect><rect width="33.333333333333336" height="4.157894736842105" x="250.00000000000003" y="-2.0789473684210527" stroke="none" fill="hsl(261, 60%, 38%)" rx="2.0789473684210527"></rect><rect width="4.157894736842105" height="33.333333333333336" x="264.58771929824564" y="-16.666666666666668" stroke="none" fill="hsl(261, 60%, 38%)" rx="2.0789473684210527"></rect><rect width="33.333333333333336" height="4.157894736842105" x="316.6666666666667" y="-2.0789473684210527" stroke="none" fill="hsl(261, 60%, 38%)" rx="2.0789473684210527"></rect><rect width="4.157894736842105" height="33.333333333333336" x="331.25438596491233" y="-16.666666666666668" stroke="none" fill="hsl(261, 60%, 38%)" rx="2.0789473684210527"></rect><rect width="33.333333333333336" height="4.157894736842105" x="383.33333333333337" y="-2.0789473684210527" stroke="none" fill="hsl(261, 60%, 38%)" rx="2.0789473684210527"></rect><rect width="4.157894736842105" height="33.333333333333336" x="397.921052631579" y="-16.666666666666668" stroke="none" fill="hsl(261, 60%, 38%)" rx="2.0789473684210527"></rect><rect width="33.333333333333336" height="4.157894736842105" x="450.00000000000006" y="-2.0789473684210527" stroke="none" fill="hsl(261, 60%, 38%)" rx="2.0789473684210527"></rect><rect width="4.157894736842105" height="33.333333333333336" x="464.5877192982457" y="-16.666666666666668" stroke="none" fill="hsl(261, 60%, 38%)" rx="2.0789473684210527"></rect><rect width="33.333333333333336" height="4.157894736842105" x="516.6666666666667" y="-2.0789473684210527" stroke="none" fill="hsl(261, 60%, 38%)" rx="2.0789473684210527"></rect><rect width="4.157894736842105" height="33.333333333333336" x="531.2543859649123" y="-16.666666666666668" stroke="none" fill="hsl(261, 60%, 38%)" rx="2.0789473684210527"></rect><rect width="33.333333333333336" height="4.157894736842105" x="583.3333333333334" y="-2.0789473684210527" stroke="none" fill="hsl(261, 60%, 38%)" rx="2.0789473684210527"></rect><rect width="4.157894736842105" height="33.333333333333336" x="597.921052631579" y="-16.666666666666668" stroke="none" fill="hsl(261, 60%, 38%)" rx="2.0789473684210527"></rect><rect width="33.333333333333336" height="4.157894736842105" x="650" y="-2.0789473684210527" stroke="none" fill="hsl(261, 60%, 38%)" rx="2.0789473684210527"></rect><rect width="4.157894736842105" height="33.333333333333336" x="664.5877192982456" y="-16.666666666666668" stroke="none" fill="hsl(261, 60%, 38%)" rx="2.0789473684210527"></rect><rect width="33.333333333333336" height="4.157894736842105" x="716.6666666666666" y="-2.0789473684210527" stroke="none" fill="hsl(261, 60%, 38%)" rx="2.0789473684210527"></rect><rect width="4.157894736842105" height="33.333333333333336" x="731.2543859649122" y="-16.666666666666668" stroke="none" fill="hsl(261, 60%, 38%)" rx="2.0789473684210527"></rect><rect width="33.333333333333336" height="4.157894736842105" x="783.3333333333333" y="-2.0789473684210527" stroke="none" fill="hsl(261, 60%, 38%)" rx="2.0789473684210527"></rect><rect width="4.157894736842105" height="33.333333333333336" x="797.9210526315788" y="-16.666666666666668" stroke="none" fill="hsl(261, 60%, 38%)" rx="2.0789473684210527"></rect><rect width="33.333333333333336" height="4.157894736842105" x="-16.666666666666668" y="64.58771929824562" stroke="none" fill="hsl(261, 60%, 38%)" rx="2.0789473684210527"></rect><rect width="4.157894736842105" height="33.333333333333336" x="-2.0789473684210527" y="50" stroke="none" fill="hsl(261, 60%, 38%)" rx="2.0789473684210527"></rect><rect width="33.333333333333336" height="4.157894736842105" x="50" y="64.58771929824562" stroke="none" fill="hsl(261, 60%, 38%)" rx="2.0789473684210527"></rect><rect width="4.157894736842105" height="33.333333333333336" x="64.58771929824562" y="50" stroke="none" fill="hsl(261, 60%, 38%)" rx="2.0789473684210527"></rect><rect width="33.333333333333336" height="4.157894736842105" x="116.66666666666667" y="64.58771929824562" stroke="none" fill="hsl(261, 60%, 38%)" rx="2.0789473684210527"></rect><rect width="4.157894736842105" height="33.333333333333336" x="131.2543859649123" y="50" stroke="none" fill="hsl(261, 60%, 38%)" rx="2.0789473684210527"></rect><rect width="33.333333333333336" height="4.157894736842105" x="183.33333333333334" y="64.58771929824562" stroke="none" fill="hsl(261, 60%, 38%)" rx="2.0789473684210527"></rect><rect width="4.157894736842105" height="33.333333333333336" x="197.92105263157896" y="50" stroke="none" fill="hsl(261, 60%, 38%)" rx="2.0789473684210527"></rect><rect width="33.333333333333336" height="4.157894736842105" x="250.00000000000003" y="64.58771929824562" stroke="none" fill="hsl(261, 60%, 38%)" rx="2.0789473684210527"></rect><rect width="4.157894736842105" height="33.333333333333336" x="264.58771929824564" y="50" stroke="none" fill="hsl(261, 60%, 38%)" rx="2.0789473684210527"></rect><rect width="33.333333333333336" height="4.157894736842105" x="316.6666666666667" y="64.58771929824562" stroke="none" fill="hsl(261, 60%, 38%)" rx="2.0789473684210527"></rect><rect width="4.157894736842105" height="33.333333333333336" x="331.25438596491233" y="50" stroke="none" fill="hsl(261, 60%, 38%)" rx="2.0789473684210527"></rect><rect width="33.333333333333336" height="4.157894736842105" x="383.33333333333337" y="64.58771929824562" stroke="none" fill="hsl(261, 60%, 38%)" rx="2.0789473684210527"></rect><rect width="4.157894736842105" height="33.333333333333336" x="397.921052631579" y="50" stroke="none" fill="hsl(261, 60%, 38%)" rx="2.0789473684210527"></rect><rect width="33.333333333333336" height="4.157894736842105" x="450.00000000000006" y="64.58771929824562" stroke="none" fill="hsl(261, 60%, 38%)" rx="2.0789473684210527"></rect><rect width="4.157894736842105" height="33.333333333333336" x="464.5877192982457" y="50" stroke="none" fill="hsl(261, 60%, 38%)" rx="2.0789473684210527"></rect><rect width="33.333333333333336" height="4.157894736842105" x="516.6666666666667" y="64.58771929824562" stroke="none" fill="hsl(261, 60%, 38%)" rx="2.0789473684210527"></rect><rect width="4.157894736842105" height="33.333333333333336" x="531.2543859649123" y="50" stroke="none" fill="hsl(261, 60%, 38%)" rx="2.0789473684210527"></rect><rect width="33.333333333333336" height="4.157894736842105" x="583.3333333333334" y="64.58771929824562" stroke="none" fill="hsl(261, 60%, 38%)" rx="2.0789473684210527"></rect><rect width="4.157894736842105" height="33.333333333333336" x="597.921052631579" y="50" stroke="none" fill="hsl(261, 60%, 38%)" rx="2.0789473684210527"></rect><rect width="33.333333333333336" height="4.157894736842105" x="650" y="64.58771929824562" stroke="none" fill="hsl(261, 60%, 38%)" rx="2.0789473684210527"></rect><rect width="4.157894736842105" height="33.333333333333336" x="664.5877192982456" y="50" stroke="none" fill="hsl(261, 60%, 38%)" rx="2.0789473684210527"></rect><rect width="33.333333333333336" height="4.157894736842105" x="716.6666666666666" y="64.58771929824562" stroke="none" fill="hsl(261, 60%, 38%)" rx="2.0789473684210527"></rect><rect width="4.157894736842105" height="33.333333333333336" x="731.2543859649122" y="50" stroke="none" fill="hsl(261, 60%, 38%)" rx="2.0789473684210527"></rect><rect width="33.333333333333336" height="4.157894736842105" x="783.3333333333333" y="64.58771929824562" stroke="none" fill="hsl(261, 60%, 38%)" rx="2.0789473684210527"></rect><rect width="4.157894736842105" height="33.333333333333336" x="797.9210526315788" y="50" stroke="none" fill="hsl(261, 60%, 38%)" rx="2.0789473684210527"></rect><rect width="33.333333333333336" height="4.157894736842105" x="-16.666666666666668" y="131.2543859649123" stroke="none" fill="hsl(261, 60%, 38%)" rx="2.0789473684210527"></rect><rect width="4.157894736842105" height="33.333333333333336" x="-2.0789473684210527" y="116.66666666666667" stroke="none" fill="hsl(261, 60%, 38%)" rx="2.0789473684210527"></rect><rect width="33.333333333333336" height="4.157894736842105" x="50" y="131.2543859649123" stroke="none" fill="hsl(261, 60%, 38%)" rx="2.0789473684210527"></rect><rect width="4.157894736842105" height="33.333333333333336" x="64.58771929824562" y="116.66666666666667" stroke="none" fill="hsl(261, 60%, 38%)" rx="2.0789473684210527"></rect><rect width="33.333333333333336" height="4.157894736842105" x="116.66666666666667" y="131.2543859649123" stroke="none" fill="hsl(261, 60%, 38%)" rx="2.0789473684210527"></rect><rect width="4.157894736842105" height="33.333333333333336" x="131.2543859649123" y="116.66666666666667" stroke="none" fill="hsl(261, 60%, 38%)" rx="2.0789473684210527"></rect><rect width="33.333333333333336" height="4.157894736842105" x="183.33333333333334" y="131.2543859649123" stroke="none" fill="hsl(261, 60%, 38%)" rx="2.0789473684210527"></rect><rect width="4.157894736842105" height="33.333333333333336" x="197.92105263157896" y="116.66666666666667" stroke="none" fill="hsl(261, 60%, 38%)" rx="2.0789473684210527"></rect><rect width="33.333333333333336" height="4.157894736842105" x="250.00000000000003" y="131.2543859649123" stroke="none" fill="hsl(261, 60%, 38%)" rx="2.0789473684210527"></rect><rect width="4.157894736842105" height="33.333333333333336" x="264.58771929824564" y="116.66666666666667" stroke="none" fill="hsl(261, 60%, 38%)" rx="2.0789473684210527"></rect><rect width="33.333333333333336" height="4.157894736842105" x="316.6666666666667" y="131.2543859649123" stroke="none" fill="hsl(261, 60%, 38%)" rx="2.0789473684210527"></rect><rect width="4.157894736842105" height="33.333333333333336" x="331.25438596491233" y="116.66666666666667" stroke="none" fill="hsl(261, 60%, 38%)" rx="2.0789473684210527"></rect><rect width="33.333333333333336" height="4.157894736842105" x="383.33333333333337" y="131.2543859649123" stroke="none" fill="hsl(261, 60%, 38%)" rx="2.0789473684210527"></rect><rect width="4.157894736842105" height="33.333333333333336" x="397.921052631579" y="116.66666666666667" stroke="none" fill="hsl(261, 60%, 38%)" rx="2.0789473684210527"></rect><rect width="33.333333333333336" height="4.157894736842105" x="450.00000000000006" y="131.2543859649123" stroke="none" fill="hsl(261, 60%, 38%)" rx="2.0789473684210527"></rect><rect width="4.157894736842105" height="33.333333333333336" x="464.5877192982457" y="116.66666666666667" stroke="none" fill="hsl(261, 60%, 38%)" rx="2.0789473684210527"></rect><rect width="33.333333333333336" height="4.157894736842105" x="516.6666666666667" y="131.2543859649123" stroke="none" fill="hsl(261, 60%, 38%)" rx="2.0789473684210527"></rect><rect width="4.157894736842105" height="33.333333333333336" x="531.2543859649123" y="116.66666666666667" stroke="none" fill="hsl(261, 60%, 38%)" rx="2.0789473684210527"></rect><rect width="33.333333333333336" height="4.157894736842105" x="583.3333333333334" y="131.2543859649123" stroke="none" fill="hsl(261, 60%, 38%)" rx="2.0789473684210527"></rect><rect width="4.157894736842105" height="33.333333333333336" x="597.921052631579" y="116.66666666666667" stroke="none" fill="hsl(261, 60%, 38%)" rx="2.0789473684210527"></rect><rect width="33.333333333333336" height="4.157894736842105" x="650" y="131.2543859649123" stroke="none" fill="hsl(261, 60%, 38%)" rx="2.0789473684210527"></rect><rect width="4.157894736842105" height="33.333333333333336" x="664.5877192982456" y="116.66666666666667" stroke="none" fill="hsl(261, 60%, 38%)" rx="2.0789473684210527"></rect><rect width="33.333333333333336" height="4.157894736842105" x="716.6666666666666" y="131.2543859649123" stroke="none" fill="hsl(261, 60%, 38%)" rx="2.0789473684210527"></rect><rect width="4.157894736842105" height="33.333333333333336" x="731.2543859649122" y="116.66666666666667" stroke="none" fill="hsl(261, 60%, 38%)" rx="2.0789473684210527"></rect><rect width="33.333333333333336" height="4.157894736842105" x="783.3333333333333" y="131.2543859649123" stroke="none" fill="hsl(261, 60%, 38%)" rx="2.0789473684210527"></rect><rect width="4.157894736842105" height="33.333333333333336" x="797.9210526315788" y="116.66666666666667" stroke="none" fill="hsl(261, 60%, 38%)" rx="2.0789473684210527"></rect><rect width="33.333333333333336" height="4.157894736842105" x="-16.666666666666668" y="197.92105263157896" stroke="none" fill="hsl(261, 60%, 38%)" rx="2.0789473684210527"></rect><rect width="4.157894736842105" height="33.333333333333336" x="-2.0789473684210527" y="183.33333333333334" stroke="none" fill="hsl(261, 60%, 38%)" rx="2.0789473684210527"></rect><rect width="33.333333333333336" height="4.157894736842105" x="50" y="197.92105263157896" stroke="none" fill="hsl(261, 60%, 38%)" rx="2.0789473684210527"></rect><rect width="4.157894736842105" height="33.333333333333336" x="64.58771929824562" y="183.33333333333334" stroke="none" fill="hsl(261, 60%, 38%)" rx="2.0789473684210527"></rect><rect width="33.333333333333336" height="4.157894736842105" x="116.66666666666667" y="197.92105263157896" stroke="none" fill="hsl(261, 60%, 38%)" rx="2.0789473684210527"></rect><rect width="4.157894736842105" height="33.333333333333336" x="131.2543859649123" y="183.33333333333334" stroke="none" fill="hsl(261, 60%, 38%)" rx="2.0789473684210527"></rect><rect width="33.333333333333336" height="4.157894736842105" x="183.33333333333334" y="197.92105263157896" stroke="none" fill="hsl(261, 60%, 38%)" rx="2.0789473684210527"></rect><rect width="4.157894736842105" height="33.333333333333336" x="197.92105263157896" y="183.33333333333334" stroke="none" fill="hsl(261, 60%, 38%)" rx="2.0789473684210527"></rect><rect width="33.333333333333336" height="4.157894736842105" x="250.00000000000003" y="197.92105263157896" stroke="none" fill="hsl(261, 60%, 38%)" rx="2.0789473684210527"></rect><rect width="4.157894736842105" height="33.333333333333336" x="264.58771929824564" y="183.33333333333334" stroke="none" fill="hsl(261, 60%, 38%)" rx="2.0789473684210527"></rect><rect width="33.333333333333336" height="4.157894736842105" x="316.6666666666667" y="197.92105263157896" stroke="none" fill="hsl(261, 60%, 38%)" rx="2.0789473684210527"></rect><rect width="4.157894736842105" height="33.333333333333336" x="331.25438596491233" y="183.33333333333334" stroke="none" fill="hsl(261, 60%, 38%)" rx="2.0789473684210527"></rect><rect width="33.333333333333336" height="4.157894736842105" x="383.33333333333337" y="197.92105263157896" stroke="none" fill="hsl(261, 60%, 38%)" rx="2.0789473684210527"></rect><rect width="4.157894736842105" height="33.333333333333336" x="397.921052631579" y="183.33333333333334" stroke="none" fill="hsl(261, 60%, 38%)" rx="2.0789473684210527"></rect><rect width="33.333333333333336" height="4.157894736842105" x="450.00000000000006" y="197.92105263157896" stroke="none" fill="hsl(261, 60%, 38%)" rx="2.0789473684210527"></rect><rect width="4.157894736842105" height="33.333333333333336" x="464.5877192982457" y="183.33333333333334" stroke="none" fill="hsl(261, 60%, 38%)" rx="2.0789473684210527"></rect><rect width="33.333333333333336" height="4.157894736842105" x="516.6666666666667" y="197.92105263157896" stroke="none" fill="hsl(261, 60%, 38%)" rx="2.0789473684210527"></rect><rect width="4.157894736842105" height="33.333333333333336" x="531.2543859649123" y="183.33333333333334" stroke="none" fill="hsl(261, 60%, 38%)" rx="2.0789473684210527"></rect><rect width="33.333333333333336" height="4.157894736842105" x="583.3333333333334" y="197.92105263157896" stroke="none" fill="hsl(261, 60%, 38%)" rx="2.0789473684210527"></rect><rect width="4.157894736842105" height="33.333333333333336" x="597.921052631579" y="183.33333333333334" stroke="none" fill="hsl(261, 60%, 38%)" rx="2.0789473684210527"></rect><rect width="33.333333333333336" height="4.157894736842105" x="650" y="197.92105263157896" stroke="none" fill="hsl(261, 60%, 38%)" rx="2.0789473684210527"></rect><rect width="4.157894736842105" height="33.333333333333336" x="664.5877192982456" y="183.33333333333334" stroke="none" fill="hsl(261, 60%, 38%)" rx="2.0789473684210527"></rect><rect width="33.333333333333336" height="4.157894736842105" x="716.6666666666666" y="197.92105263157896" stroke="none" fill="hsl(261, 60%, 38%)" rx="2.0789473684210527"></rect><rect width="4.157894736842105" height="33.333333333333336" x="731.2543859649122" y="183.33333333333334" stroke="none" fill="hsl(261, 60%, 38%)" rx="2.0789473684210527"></rect><rect width="33.333333333333336" height="4.157894736842105" x="783.3333333333333" y="197.92105263157896" stroke="none" fill="hsl(261, 60%, 38%)" rx="2.0789473684210527"></rect><rect width="4.157894736842105" height="33.333333333333336" x="797.9210526315788" y="183.33333333333334" stroke="none" fill="hsl(261, 60%, 38%)" rx="2.0789473684210527"></rect><rect width="33.333333333333336" height="4.157894736842105" x="-16.666666666666668" y="264.58771929824564" stroke="none" fill="hsl(261, 60%, 38%)" rx="2.0789473684210527"></rect><rect width="4.157894736842105" height="33.333333333333336" x="-2.0789473684210527" y="250.00000000000003" stroke="none" fill="hsl(261, 60%, 38%)" rx="2.0789473684210527"></rect><rect width="33.333333333333336" height="4.157894736842105" x="50" y="264.58771929824564" stroke="none" fill="hsl(261, 60%, 38%)" rx="2.0789473684210527"></rect><rect width="4.157894736842105" height="33.333333333333336" x="64.58771929824562" y="250.00000000000003" stroke="none" fill="hsl(261, 60%, 38%)" rx="2.0789473684210527"></rect><rect width="33.333333333333336" height="4.157894736842105" x="116.66666666666667" y="264.58771929824564" stroke="none" fill="hsl(261, 60%, 38%)" rx="2.0789473684210527"></rect><rect width="4.157894736842105" height="33.333333333333336" x="131.2543859649123" y="250.00000000000003" stroke="none" fill="hsl(261, 60%, 38%)" rx="2.0789473684210527"></rect><rect width="33.333333333333336" height="4.157894736842105" x="183.33333333333334" y="264.58771929824564" stroke="none" fill="hsl(261, 60%, 38%)" rx="2.0789473684210527"></rect><rect width="4.157894736842105" height="33.333333333333336" x="197.92105263157896" y="250.00000000000003" stroke="none" fill="hsl(261, 60%, 38%)" rx="2.0789473684210527"></rect><rect width="33.333333333333336" height="4.157894736842105" x="250.00000000000003" y="264.58771929824564" stroke="none" fill="hsl(261, 60%, 38%)" rx="2.0789473684210527"></rect><rect width="4.157894736842105" height="33.333333333333336" x="264.58771929824564" y="250.00000000000003" stroke="none" fill="hsl(261, 60%, 38%)" rx="2.0789473684210527"></rect><rect width="33.333333333333336" height="4.157894736842105" x="316.6666666666667" y="264.58771929824564" stroke="none" fill="hsl(261, 60%, 38%)" rx="2.0789473684210527"></rect><rect width="4.157894736842105" height="33.333333333333336" x="331.25438596491233" y="250.00000000000003" stroke="none" fill="hsl(261, 60%, 38%)" rx="2.0789473684210527"></rect><rect width="33.333333333333336" height="4.157894736842105" x="383.33333333333337" y="264.58771929824564" stroke="none" fill="hsl(261, 60%, 38%)" rx="2.0789473684210527"></rect><rect width="4.157894736842105" height="33.333333333333336" x="397.921052631579" y="250.00000000000003" stroke="none" fill="hsl(261, 60%, 38%)" rx="2.0789473684210527"></rect><rect width="33.333333333333336" height="4.157894736842105" x="450.00000000000006" y="264.58771929824564" stroke="none" fill="hsl(261, 60%, 38%)" rx="2.0789473684210527"></rect><rect width="4.157894736842105" height="33.333333333333336" x="464.5877192982457" y="250.00000000000003" stroke="none" fill="hsl(261, 60%, 38%)" rx="2.0789473684210527"></rect><rect width="33.333333333333336" height="4.157894736842105" x="516.6666666666667" y="264.58771929824564" stroke="none" fill="hsl(261, 60%, 38%)" rx="2.0789473684210527"></rect><rect width="4.157894736842105" height="33.333333333333336" x="531.2543859649123" y="250.00000000000003" stroke="none" fill="hsl(261, 60%, 38%)" rx="2.0789473684210527"></rect><rect width="33.333333333333336" height="4.157894736842105" x="583.3333333333334" y="264.58771929824564" stroke="none" fill="hsl(261, 60%, 38%)" rx="2.0789473684210527"></rect><rect width="4.157894736842105" height="33.333333333333336" x="597.921052631579" y="250.00000000000003" stroke="none" fill="hsl(261, 60%, 38%)" rx="2.0789473684210527"></rect><rect width="33.333333333333336" height="4.157894736842105" x="650" y="264.58771929824564" stroke="none" fill="hsl(261, 60%, 38%)" rx="2.0789473684210527"></rect><rect width="4.157894736842105" height="33.333333333333336" x="664.5877192982456" y="250.00000000000003" stroke="none" fill="hsl(261, 60%, 38%)" rx="2.0789473684210527"></rect><rect width="33.333333333333336" height="4.157894736842105" x="716.6666666666666" y="264.58771929824564" stroke="none" fill="hsl(261, 60%, 38%)" rx="2.0789473684210527"></rect><rect width="4.157894736842105" height="33.333333333333336" x="731.2543859649122" y="250.00000000000003" stroke="none" fill="hsl(261, 60%, 38%)" rx="2.0789473684210527"></rect><rect width="33.333333333333336" height="4.157894736842105" x="783.3333333333333" y="264.58771929824564" stroke="none" fill="hsl(261, 60%, 38%)" rx="2.0789473684210527"></rect><rect width="4.157894736842105" height="33.333333333333336" x="797.9210526315788" y="250.00000000000003" stroke="none" fill="hsl(261, 60%, 38%)" rx="2.0789473684210527"></rect><rect width="33.333333333333336" height="4.157894736842105" x="-16.666666666666668" y="331.25438596491233" stroke="none" fill="hsl(261, 60%, 38%)" rx="2.0789473684210527"></rect><rect width="4.157894736842105" height="33.333333333333336" x="-2.0789473684210527" y="316.6666666666667" stroke="none" fill="hsl(261, 60%, 38%)" rx="2.0789473684210527"></rect><rect width="33.333333333333336" height="4.157894736842105" x="50" y="331.25438596491233" stroke="none" fill="hsl(261, 60%, 38%)" rx="2.0789473684210527"></rect><rect width="4.157894736842105" height="33.333333333333336" x="64.58771929824562" y="316.6666666666667" stroke="none" fill="hsl(261, 60%, 38%)" rx="2.0789473684210527"></rect><rect width="33.333333333333336" height="4.157894736842105" x="116.66666666666667" y="331.25438596491233" stroke="none" fill="hsl(261, 60%, 38%)" rx="2.0789473684210527"></rect><rect width="4.157894736842105" height="33.333333333333336" x="131.2543859649123" y="316.6666666666667" stroke="none" fill="hsl(261, 60%, 38%)" rx="2.0789473684210527"></rect><rect width="33.333333333333336" height="4.157894736842105" x="183.33333333333334" y="331.25438596491233" stroke="none" fill="hsl(261, 60%, 38%)" rx="2.0789473684210527"></rect><rect width="4.157894736842105" height="33.333333333333336" x="197.92105263157896" y="316.6666666666667" stroke="none" fill="hsl(261, 60%, 38%)" rx="2.0789473684210527"></rect><rect width="33.333333333333336" height="4.157894736842105" x="250.00000000000003" y="331.25438596491233" stroke="none" fill="hsl(261, 60%, 38%)" rx="2.0789473684210527"></rect><rect width="4.157894736842105" height="33.333333333333336" x="264.58771929824564" y="316.6666666666667" stroke="none" fill="hsl(261, 60%, 38%)" rx="2.0789473684210527"></rect><rect width="33.333333333333336" height="4.157894736842105" x="316.6666666666667" y="331.25438596491233" stroke="none" fill="hsl(261, 60%, 38%)" rx="2.0789473684210527"></rect><rect width="4.157894736842105" height="33.333333333333336" x="331.25438596491233" y="316.6666666666667" stroke="none" fill="hsl(261, 60%, 38%)" rx="2.0789473684210527"></rect><rect width="33.333333333333336" height="4.157894736842105" x="383.33333333333337" y="331.25438596491233" stroke="none" fill="hsl(261, 60%, 38%)" rx="2.0789473684210527"></rect><rect width="4.157894736842105" height="33.333333333333336" x="397.921052631579" y="316.6666666666667" stroke="none" fill="hsl(261, 60%, 38%)" rx="2.0789473684210527"></rect><rect width="33.333333333333336" height="4.157894736842105" x="450.00000000000006" y="331.25438596491233" stroke="none" fill="hsl(261, 60%, 38%)" rx="2.0789473684210527"></rect><rect width="4.157894736842105" height="33.333333333333336" x="464.5877192982457" y="316.6666666666667" stroke="none" fill="hsl(261, 60%, 38%)" rx="2.0789473684210527"></rect><rect width="33.333333333333336" height="4.157894736842105" x="516.6666666666667" y="331.25438596491233" stroke="none" fill="hsl(261, 60%, 38%)" rx="2.0789473684210527"></rect><rect width="4.157894736842105" height="33.333333333333336" x="531.2543859649123" y="316.6666666666667" stroke="none" fill="hsl(261, 60%, 38%)" rx="2.0789473684210527"></rect><rect width="33.333333333333336" height="4.157894736842105" x="583.3333333333334" y="331.25438596491233" stroke="none" fill="hsl(261, 60%, 38%)" rx="2.0789473684210527"></rect><rect width="4.157894736842105" height="33.333333333333336" x="597.921052631579" y="316.6666666666667" stroke="none" fill="hsl(261, 60%, 38%)" rx="2.0789473684210527"></rect><rect width="33.333333333333336" height="4.157894736842105" x="650" y="331.25438596491233" stroke="none" fill="hsl(261, 60%, 38%)" rx="2.0789473684210527"></rect><rect width="4.157894736842105" height="33.333333333333336" x="664.5877192982456" y="316.6666666666667" stroke="none" fill="hsl(261, 60%, 38%)" rx="2.0789473684210527"></rect><rect width="33.333333333333336" height="4.157894736842105" x="716.6666666666666" y="331.25438596491233" stroke="none" fill="hsl(261, 60%, 38%)" rx="2.0789473684210527"></rect><rect width="4.157894736842105" height="33.333333333333336" x="731.2543859649122" y="316.6666666666667" stroke="none" fill="hsl(261, 60%, 38%)" rx="2.0789473684210527"></rect><rect width="33.333333333333336" height="4.157894736842105" x="783.3333333333333" y="331.25438596491233" stroke="none" fill="hsl(261, 60%, 38%)" rx="2.0789473684210527"></rect><rect width="4.157894736842105" height="33.333333333333336" x="797.9210526315788" y="316.6666666666667" stroke="none" fill="hsl(261, 60%, 38%)" rx="2.0789473684210527"></rect><rect width="33.333333333333336" height="4.157894736842105" x="-16.666666666666668" y="397.921052631579" stroke="none" fill="hsl(261, 60%, 38%)" rx="2.0789473684210527"></rect><rect width="4.157894736842105" height="33.333333333333336" x="-2.0789473684210527" y="383.33333333333337" stroke="none" fill="hsl(261, 60%, 38%)" rx="2.0789473684210527"></rect><rect width="33.333333333333336" height="4.157894736842105" x="50" y="397.921052631579" stroke="none" fill="hsl(261, 60%, 38%)" rx="2.0789473684210527"></rect><rect width="4.157894736842105" height="33.333333333333336" x="64.58771929824562" y="383.33333333333337" stroke="none" fill="hsl(261, 60%, 38%)" rx="2.0789473684210527"></rect><rect width="33.333333333333336" height="4.157894736842105" x="116.66666666666667" y="397.921052631579" stroke="none" fill="hsl(261, 60%, 38%)" rx="2.0789473684210527"></rect><rect width="4.157894736842105" height="33.333333333333336" x="131.2543859649123" y="383.33333333333337" stroke="none" fill="hsl(261, 60%, 38%)" rx="2.0789473684210527"></rect><rect width="33.333333333333336" height="4.157894736842105" x="183.33333333333334" y="397.921052631579" stroke="none" fill="hsl(261, 60%, 38%)" rx="2.0789473684210527"></rect><rect width="4.157894736842105" height="33.333333333333336" x="197.92105263157896" y="383.33333333333337" stroke="none" fill="hsl(261, 60%, 38%)" rx="2.0789473684210527"></rect><rect width="33.333333333333336" height="4.157894736842105" x="250.00000000000003" y="397.921052631579" stroke="none" fill="hsl(261, 60%, 38%)" rx="2.0789473684210527"></rect><rect width="4.157894736842105" height="33.333333333333336" x="264.58771929824564" y="383.33333333333337" stroke="none" fill="hsl(261, 60%, 38%)" rx="2.0789473684210527"></rect><rect width="33.333333333333336" height="4.157894736842105" x="316.6666666666667" y="397.921052631579" stroke="none" fill="hsl(261, 60%, 38%)" rx="2.0789473684210527"></rect><rect width="4.157894736842105" height="33.333333333333336" x="331.25438596491233" y="383.33333333333337" stroke="none" fill="hsl(261, 60%, 38%)" rx="2.0789473684210527"></rect><rect width="33.333333333333336" height="4.157894736842105" x="383.33333333333337" y="397.921052631579" stroke="none" fill="hsl(261, 60%, 38%)" rx="2.0789473684210527"></rect><rect width="4.157894736842105" height="33.333333333333336" x="397.921052631579" y="383.33333333333337" stroke="none" fill="hsl(261, 60%, 38%)" rx="2.0789473684210527"></rect><rect width="33.333333333333336" height="4.157894736842105" x="450.00000000000006" y="397.921052631579" stroke="none" fill="hsl(261, 60%, 38%)" rx="2.0789473684210527"></rect><rect width="4.157894736842105" height="33.333333333333336" x="464.5877192982457" y="383.33333333333337" stroke="none" fill="hsl(261, 60%, 38%)" rx="2.0789473684210527"></rect><rect width="33.333333333333336" height="4.157894736842105" x="516.6666666666667" y="397.921052631579" stroke="none" fill="hsl(261, 60%, 38%)" rx="2.0789473684210527"></rect><rect width="4.157894736842105" height="33.333333333333336" x="531.2543859649123" y="383.33333333333337" stroke="none" fill="hsl(261, 60%, 38%)" rx="2.0789473684210527"></rect><rect width="33.333333333333336" height="4.157894736842105" x="583.3333333333334" y="397.921052631579" stroke="none" fill="hsl(261, 60%, 38%)" rx="2.0789473684210527"></rect><rect width="4.157894736842105" height="33.333333333333336" x="597.921052631579" y="383.33333333333337" stroke="none" fill="hsl(261, 60%, 38%)" rx="2.0789473684210527"></rect><rect width="33.333333333333336" height="4.157894736842105" x="650" y="397.921052631579" stroke="none" fill="hsl(261, 60%, 38%)" rx="2.0789473684210527"></rect><rect width="4.157894736842105" height="33.333333333333336" x="664.5877192982456" y="383.33333333333337" stroke="none" fill="hsl(261, 60%, 38%)" rx="2.0789473684210527"></rect><rect width="33.333333333333336" height="4.157894736842105" x="716.6666666666666" y="397.921052631579" stroke="none" fill="hsl(261, 60%, 38%)" rx="2.0789473684210527"></rect><rect width="4.157894736842105" height="33.333333333333336" x="731.2543859649122" y="383.33333333333337" stroke="none" fill="hsl(261, 60%, 38%)" rx="2.0789473684210527"></rect><rect width="33.333333333333336" height="4.157894736842105" x="783.3333333333333" y="397.921052631579" stroke="none" fill="hsl(261, 60%, 38%)" rx="2.0789473684210527"></rect><rect width="4.157894736842105" height="33.333333333333336" x="797.9210526315788" y="383.33333333333337" stroke="none" fill="hsl(261, 60%, 38%)" rx="2.0789473684210527"></rect><rect width="33.333333333333336" height="4.157894736842105" x="-16.666666666666668" y="464.5877192982457" stroke="none" fill="hsl(261, 60%, 38%)" rx="2.0789473684210527"></rect><rect width="4.157894736842105" height="33.333333333333336" x="-2.0789473684210527" y="450.00000000000006" stroke="none" fill="hsl(261, 60%, 38%)" rx="2.0789473684210527"></rect><rect width="33.333333333333336" height="4.157894736842105" x="50" y="464.5877192982457" stroke="none" fill="hsl(261, 60%, 38%)" rx="2.0789473684210527"></rect><rect width="4.157894736842105" height="33.333333333333336" x="64.58771929824562" y="450.00000000000006" stroke="none" fill="hsl(261, 60%, 38%)" rx="2.0789473684210527"></rect><rect width="33.333333333333336" height="4.157894736842105" x="116.66666666666667" y="464.5877192982457" stroke="none" fill="hsl(261, 60%, 38%)" rx="2.0789473684210527"></rect><rect width="4.157894736842105" height="33.333333333333336" x="131.2543859649123" y="450.00000000000006" stroke="none" fill="hsl(261, 60%, 38%)" rx="2.0789473684210527"></rect><rect width="33.333333333333336" height="4.157894736842105" x="183.33333333333334" y="464.5877192982457" stroke="none" fill="hsl(261, 60%, 38%)" rx="2.0789473684210527"></rect><rect width="4.157894736842105" height="33.333333333333336" x="197.92105263157896" y="450.00000000000006" stroke="none" fill="hsl(261, 60%, 38%)" rx="2.0789473684210527"></rect><rect width="33.333333333333336" height="4.157894736842105" x="250.00000000000003" y="464.5877192982457" stroke="none" fill="hsl(261, 60%, 38%)" rx="2.0789473684210527"></rect><rect width="4.157894736842105" height="33.333333333333336" x="264.58771929824564" y="450.00000000000006" stroke="none" fill="hsl(261, 60%, 38%)" rx="2.0789473684210527"></rect><rect width="33.333333333333336" height="4.157894736842105" x="316.6666666666667" y="464.5877192982457" stroke="none" fill="hsl(261, 60%, 38%)" rx="2.0789473684210527"></rect><rect width="4.157894736842105" height="33.333333333333336" x="331.25438596491233" y="450.00000000000006" stroke="none" fill="hsl(261, 60%, 38%)" rx="2.0789473684210527"></rect><rect width="33.333333333333336" height="4.157894736842105" x="383.33333333333337" y="464.5877192982457" stroke="none" fill="hsl(261, 60%, 38%)" rx="2.0789473684210527"></rect><rect width="4.157894736842105" height="33.333333333333336" x="397.921052631579" y="450.00000000000006" stroke="none" fill="hsl(261, 60%, 38%)" rx="2.0789473684210527"></rect><rect width="33.333333333333336" height="4.157894736842105" x="450.00000000000006" y="464.5877192982457" stroke="none" fill="hsl(261, 60%, 38%)" rx="2.0789473684210527"></rect><rect width="4.157894736842105" height="33.333333333333336" x="464.5877192982457" y="450.00000000000006" stroke="none" fill="hsl(261, 60%, 38%)" rx="2.0789473684210527"></rect><rect width="33.333333333333336" height="4.157894736842105" x="516.6666666666667" y="464.5877192982457" stroke="none" fill="hsl(261, 60%, 38%)" rx="2.0789473684210527"></rect><rect width="4.157894736842105" height="33.333333333333336" x="531.2543859649123" y="450.00000000000006" stroke="none" fill="hsl(261, 60%, 38%)" rx="2.0789473684210527"></rect><rect width="33.333333333333336" height="4.157894736842105" x="583.3333333333334" y="464.5877192982457" stroke="none" fill="hsl(261, 60%, 38%)" rx="2.0789473684210527"></rect><rect width="4.157894736842105" height="33.333333333333336" x="597.921052631579" y="450.00000000000006" stroke="none" fill="hsl(261, 60%, 38%)" rx="2.0789473684210527"></rect><rect width="33.333333333333336" height="4.157894736842105" x="650" y="464.5877192982457" stroke="none" fill="hsl(261, 60%, 38%)" rx="2.0789473684210527"></rect><rect width="4.157894736842105" height="33.333333333333336" x="664.5877192982456" y="450.00000000000006" stroke="none" fill="hsl(261, 60%, 38%)" rx="2.0789473684210527"></rect><rect width="33.333333333333336" height="4.157894736842105" x="716.6666666666666" y="464.5877192982457" stroke="none" fill="hsl(261, 60%, 38%)" rx="2.0789473684210527"></rect><rect width="4.157894736842105" height="33.333333333333336" x="731.2543859649122" y="450.00000000000006" stroke="none" fill="hsl(261, 60%, 38%)" rx="2.0789473684210527"></rect><rect width="33.333333333333336" height="4.157894736842105" x="783.3333333333333" y="464.5877192982457" stroke="none" fill="hsl(261, 60%, 38%)" rx="2.0789473684210527"></rect><rect width="4.157894736842105" height="33.333333333333336" x="797.9210526315788" y="450.00000000000006" stroke="none" fill="hsl(261, 60%, 38%)" rx="2.0789473684210527"></rect><rect width="33.333333333333336" height="4.157894736842105" x="-16.666666666666668" y="531.2543859649123" stroke="none" fill="hsl(261, 60%, 38%)" rx="2.0789473684210527"></rect><rect width="4.157894736842105" height="33.333333333333336" x="-2.0789473684210527" y="516.6666666666667" stroke="none" fill="hsl(261, 60%, 38%)" rx="2.0789473684210527"></rect><rect width="33.333333333333336" height="4.157894736842105" x="50" y="531.2543859649123" stroke="none" fill="hsl(261, 60%, 38%)" rx="2.0789473684210527"></rect><rect width="4.157894736842105" height="33.333333333333336" x="64.58771929824562" y="516.6666666666667" stroke="none" fill="hsl(261, 60%, 38%)" rx="2.0789473684210527"></rect><rect width="33.333333333333336" height="4.157894736842105" x="116.66666666666667" y="531.2543859649123" stroke="none" fill="hsl(261, 60%, 38%)" rx="2.0789473684210527"></rect><rect width="4.157894736842105" height="33.333333333333336" x="131.2543859649123" y="516.6666666666667" stroke="none" fill="hsl(261, 60%, 38%)" rx="2.0789473684210527"></rect><rect width="33.333333333333336" height="4.157894736842105" x="183.33333333333334" y="531.2543859649123" stroke="none" fill="hsl(261, 60%, 38%)" rx="2.0789473684210527"></rect><rect width="4.157894736842105" height="33.333333333333336" x="197.92105263157896" y="516.6666666666667" stroke="none" fill="hsl(261, 60%, 38%)" rx="2.0789473684210527"></rect><rect width="33.333333333333336" height="4.157894736842105" x="250.00000000000003" y="531.2543859649123" stroke="none" fill="hsl(261, 60%, 38%)" rx="2.0789473684210527"></rect><rect width="4.157894736842105" height="33.333333333333336" x="264.58771929824564" y="516.6666666666667" stroke="none" fill="hsl(261, 60%, 38%)" rx="2.0789473684210527"></rect><rect width="33.333333333333336" height="4.157894736842105" x="316.6666666666667" y="531.2543859649123" stroke="none" fill="hsl(261, 60%, 38%)" rx="2.0789473684210527"></rect><rect width="4.157894736842105" height="33.333333333333336" x="331.25438596491233" y="516.6666666666667" stroke="none" fill="hsl(261, 60%, 38%)" rx="2.0789473684210527"></rect><rect width="33.333333333333336" height="4.157894736842105" x="383.33333333333337" y="531.2543859649123" stroke="none" fill="hsl(261, 60%, 38%)" rx="2.0789473684210527"></rect><rect width="4.157894736842105" height="33.333333333333336" x="397.921052631579" y="516.6666666666667" stroke="none" fill="hsl(261, 60%, 38%)" rx="2.0789473684210527"></rect><rect width="33.333333333333336" height="4.157894736842105" x="450.00000000000006" y="531.2543859649123" stroke="none" fill="hsl(261, 60%, 38%)" rx="2.0789473684210527"></rect><rect width="4.157894736842105" height="33.333333333333336" x="464.5877192982457" y="516.6666666666667" stroke="none" fill="hsl(261, 60%, 38%)" rx="2.0789473684210527"></rect><rect width="33.333333333333336" height="4.157894736842105" x="516.6666666666667" y="531.2543859649123" stroke="none" fill="hsl(261, 60%, 38%)" rx="2.0789473684210527"></rect><rect width="4.157894736842105" height="33.333333333333336" x="531.2543859649123" y="516.6666666666667" stroke="none" fill="hsl(261, 60%, 38%)" rx="2.0789473684210527"></rect><rect width="33.333333333333336" height="4.157894736842105" x="583.3333333333334" y="531.2543859649123" stroke="none" fill="hsl(261, 60%, 38%)" rx="2.0789473684210527"></rect><rect width="4.157894736842105" height="33.333333333333336" x="597.921052631579" y="516.6666666666667" stroke="none" fill="hsl(261, 60%, 38%)" rx="2.0789473684210527"></rect><rect width="33.333333333333336" height="4.157894736842105" x="650" y="531.2543859649123" stroke="none" fill="hsl(261, 60%, 38%)" rx="2.0789473684210527"></rect><rect width="4.157894736842105" height="33.333333333333336" x="664.5877192982456" y="516.6666666666667" stroke="none" fill="hsl(261, 60%, 38%)" rx="2.0789473684210527"></rect><rect width="33.333333333333336" height="4.157894736842105" x="716.6666666666666" y="531.2543859649123" stroke="none" fill="hsl(261, 60%, 38%)" rx="2.0789473684210527"></rect><rect width="4.157894736842105" height="33.333333333333336" x="731.2543859649122" y="516.6666666666667" stroke="none" fill="hsl(261, 60%, 38%)" rx="2.0789473684210527"></rect><rect width="33.333333333333336" height="4.157894736842105" x="783.3333333333333" y="531.2543859649123" stroke="none" fill="hsl(261, 60%, 38%)" rx="2.0789473684210527"></rect><rect width="4.157894736842105" height="33.333333333333336" x="797.9210526315788" y="516.6666666666667" stroke="none" fill="hsl(261, 60%, 38%)" rx="2.0789473684210527"></rect><rect width="33.333333333333336" height="4.157894736842105" x="-16.666666666666668" y="597.921052631579" stroke="none" fill="hsl(261, 60%, 38%)" rx="2.0789473684210527"></rect><rect width="4.157894736842105" height="33.333333333333336" x="-2.0789473684210527" y="583.3333333333334" stroke="none" fill="hsl(261, 60%, 38%)" rx="2.0789473684210527"></rect><rect width="33.333333333333336" height="4.157894736842105" x="50" y="597.921052631579" stroke="none" fill="hsl(261, 60%, 38%)" rx="2.0789473684210527"></rect><rect width="4.157894736842105" height="33.333333333333336" x="64.58771929824562" y="583.3333333333334" stroke="none" fill="hsl(261, 60%, 38%)" rx="2.0789473684210527"></rect><rect width="33.333333333333336" height="4.157894736842105" x="116.66666666666667" y="597.921052631579" stroke="none" fill="hsl(261, 60%, 38%)" rx="2.0789473684210527"></rect><rect width="4.157894736842105" height="33.333333333333336" x="131.2543859649123" y="583.3333333333334" stroke="none" fill="hsl(261, 60%, 38%)" rx="2.0789473684210527"></rect><rect width="33.333333333333336" height="4.157894736842105" x="183.33333333333334" y="597.921052631579" stroke="none" fill="hsl(261, 60%, 38%)" rx="2.0789473684210527"></rect><rect width="4.157894736842105" height="33.333333333333336" x="197.92105263157896" y="583.3333333333334" stroke="none" fill="hsl(261, 60%, 38%)" rx="2.0789473684210527"></rect><rect width="33.333333333333336" height="4.157894736842105" x="250.00000000000003" y="597.921052631579" stroke="none" fill="hsl(261, 60%, 38%)" rx="2.0789473684210527"></rect><rect width="4.157894736842105" height="33.333333333333336" x="264.58771929824564" y="583.3333333333334" stroke="none" fill="hsl(261, 60%, 38%)" rx="2.0789473684210527"></rect><rect width="33.333333333333336" height="4.157894736842105" x="316.6666666666667" y="597.921052631579" stroke="none" fill="hsl(261, 60%, 38%)" rx="2.0789473684210527"></rect><rect width="4.157894736842105" height="33.333333333333336" x="331.25438596491233" y="583.3333333333334" stroke="none" fill="hsl(261, 60%, 38%)" rx="2.0789473684210527"></rect><rect width="33.333333333333336" height="4.157894736842105" x="383.33333333333337" y="597.921052631579" stroke="none" fill="hsl(261, 60%, 38%)" rx="2.0789473684210527"></rect><rect width="4.157894736842105" height="33.333333333333336" x="397.921052631579" y="583.3333333333334" stroke="none" fill="hsl(261, 60%, 38%)" rx="2.0789473684210527"></rect><rect width="33.333333333333336" height="4.157894736842105" x="450.00000000000006" y="597.921052631579" stroke="none" fill="hsl(261, 60%, 38%)" rx="2.0789473684210527"></rect><rect width="4.157894736842105" height="33.333333333333336" x="464.5877192982457" y="583.3333333333334" stroke="none" fill="hsl(261, 60%, 38%)" rx="2.0789473684210527"></rect><rect width="33.333333333333336" height="4.157894736842105" x="516.6666666666667" y="597.921052631579" stroke="none" fill="hsl(261, 60%, 38%)" rx="2.0789473684210527"></rect><rect width="4.157894736842105" height="33.333333333333336" x="531.2543859649123" y="583.3333333333334" stroke="none" fill="hsl(261, 60%, 38%)" rx="2.0789473684210527"></rect><rect width="33.333333333333336" height="4.157894736842105" x="583.3333333333334" y="597.921052631579" stroke="none" fill="hsl(261, 60%, 38%)" rx="2.0789473684210527"></rect><rect width="4.157894736842105" height="33.333333333333336" x="597.921052631579" y="583.3333333333334" stroke="none" fill="hsl(261, 60%, 38%)" rx="2.0789473684210527"></rect><rect width="33.333333333333336" height="4.157894736842105" x="650" y="597.921052631579" stroke="none" fill="hsl(261, 60%, 38%)" rx="2.0789473684210527"></rect><rect width="4.157894736842105" height="33.333333333333336" x="664.5877192982456" y="583.3333333333334" stroke="none" fill="hsl(261, 60%, 38%)" rx="2.0789473684210527"></rect><rect width="33.333333333333336" height="4.157894736842105" x="716.6666666666666" y="597.921052631579" stroke="none" fill="hsl(261, 60%, 38%)" rx="2.0789473684210527"></rect><rect width="4.157894736842105" height="33.333333333333336" x="731.2543859649122" y="583.3333333333334" stroke="none" fill="hsl(261, 60%, 38%)" rx="2.0789473684210527"></rect><rect width="33.333333333333336" height="4.157894736842105" x="783.3333333333333" y="597.921052631579" stroke="none" fill="hsl(261, 60%, 38%)" rx="2.0789473684210527"></rect><rect width="4.157894736842105" height="33.333333333333336" x="797.9210526315788" y="583.3333333333334" stroke="none" fill="hsl(261, 60%, 38%)" rx="2.0789473684210527"></rect><rect width="33.333333333333336" height="4.157894736842105" x="-16.666666666666668" y="664.5877192982456" stroke="none" fill="hsl(261, 60%, 38%)" rx="2.0789473684210527"></rect><rect width="4.157894736842105" height="33.333333333333336" x="-2.0789473684210527" y="650" stroke="none" fill="hsl(261, 60%, 38%)" rx="2.0789473684210527"></rect><rect width="33.333333333333336" height="4.157894736842105" x="50" y="664.5877192982456" stroke="none" fill="hsl(261, 60%, 38%)" rx="2.0789473684210527"></rect><rect width="4.157894736842105" height="33.333333333333336" x="64.58771929824562" y="650" stroke="none" fill="hsl(261, 60%, 38%)" rx="2.0789473684210527"></rect><rect width="33.333333333333336" height="4.157894736842105" x="116.66666666666667" y="664.5877192982456" stroke="none" fill="hsl(261, 60%, 38%)" rx="2.0789473684210527"></rect><rect width="4.157894736842105" height="33.333333333333336" x="131.2543859649123" y="650" stroke="none" fill="hsl(261, 60%, 38%)" rx="2.0789473684210527"></rect><rect width="33.333333333333336" height="4.157894736842105" x="183.33333333333334" y="664.5877192982456" stroke="none" fill="hsl(261, 60%, 38%)" rx="2.0789473684210527"></rect><rect width="4.157894736842105" height="33.333333333333336" x="197.92105263157896" y="650" stroke="none" fill="hsl(261, 60%, 38%)" rx="2.0789473684210527"></rect><rect width="33.333333333333336" height="4.157894736842105" x="250.00000000000003" y="664.5877192982456" stroke="none" fill="hsl(261, 60%, 38%)" rx="2.0789473684210527"></rect><rect width="4.157894736842105" height="33.333333333333336" x="264.58771929824564" y="650" stroke="none" fill="hsl(261, 60%, 38%)" rx="2.0789473684210527"></rect><rect width="33.333333333333336" height="4.157894736842105" x="316.6666666666667" y="664.5877192982456" stroke="none" fill="hsl(261, 60%, 38%)" rx="2.0789473684210527"></rect><rect width="4.157894736842105" height="33.333333333333336" x="331.25438596491233" y="650" stroke="none" fill="hsl(261, 60%, 38%)" rx="2.0789473684210527"></rect><rect width="33.333333333333336" height="4.157894736842105" x="383.33333333333337" y="664.5877192982456" stroke="none" fill="hsl(261, 60%, 38%)" rx="2.0789473684210527"></rect><rect width="4.157894736842105" height="33.333333333333336" x="397.921052631579" y="650" stroke="none" fill="hsl(261, 60%, 38%)" rx="2.0789473684210527"></rect><rect width="33.333333333333336" height="4.157894736842105" x="450.00000000000006" y="664.5877192982456" stroke="none" fill="hsl(261, 60%, 38%)" rx="2.0789473684210527"></rect><rect width="4.157894736842105" height="33.333333333333336" x="464.5877192982457" y="650" stroke="none" fill="hsl(261, 60%, 38%)" rx="2.0789473684210527"></rect><rect width="33.333333333333336" height="4.157894736842105" x="516.6666666666667" y="664.5877192982456" stroke="none" fill="hsl(261, 60%, 38%)" rx="2.0789473684210527"></rect><rect width="4.157894736842105" height="33.333333333333336" x="531.2543859649123" y="650" stroke="none" fill="hsl(261, 60%, 38%)" rx="2.0789473684210527"></rect><rect width="33.333333333333336" height="4.157894736842105" x="583.3333333333334" y="664.5877192982456" stroke="none" fill="hsl(261, 60%, 38%)" rx="2.0789473684210527"></rect><rect width="4.157894736842105" height="33.333333333333336" x="597.921052631579" y="650" stroke="none" fill="hsl(261, 60%, 38%)" rx="2.0789473684210527"></rect><rect width="33.333333333333336" height="4.157894736842105" x="650" y="664.5877192982456" stroke="none" fill="hsl(261, 60%, 38%)" rx="2.0789473684210527"></rect><rect width="4.157894736842105" height="33.333333333333336" x="664.5877192982456" y="650" stroke="none" fill="hsl(261, 60%, 38%)" rx="2.0789473684210527"></rect><rect width="33.333333333333336" height="4.157894736842105" x="716.6666666666666" y="664.5877192982456" stroke="none" fill="hsl(261, 60%, 38%)" rx="2.0789473684210527"></rect><rect width="4.157894736842105" height="33.333333333333336" x="731.2543859649122" y="650" stroke="none" fill="hsl(261, 60%, 38%)" rx="2.0789473684210527"></rect><rect width="33.333333333333336" height="4.157894736842105" x="783.3333333333333" y="664.5877192982456" stroke="none" fill="hsl(261, 60%, 38%)" rx="2.0789473684210527"></rect><rect width="4.157894736842105" height="33.333333333333336" x="797.9210526315788" y="650" stroke="none" fill="hsl(261, 60%, 38%)" rx="2.0789473684210527"></rect><rect width="33.333333333333336" height="4.157894736842105" x="-16.666666666666668" y="731.2543859649122" stroke="none" fill="hsl(261, 60%, 38%)" rx="2.0789473684210527"></rect><rect width="4.157894736842105" height="33.333333333333336" x="-2.0789473684210527" y="716.6666666666666" stroke="none" fill="hsl(261, 60%, 38%)" rx="2.0789473684210527"></rect><rect width="33.333333333333336" height="4.157894736842105" x="50" y="731.2543859649122" stroke="none" fill="hsl(261, 60%, 38%)" rx="2.0789473684210527"></rect><rect width="4.157894736842105" height="33.333333333333336" x="64.58771929824562" y="716.6666666666666" stroke="none" fill="hsl(261, 60%, 38%)" rx="2.0789473684210527"></rect><rect width="33.333333333333336" height="4.157894736842105" x="116.66666666666667" y="731.2543859649122" stroke="none" fill="hsl(261, 60%, 38%)" rx="2.0789473684210527"></rect><rect width="4.157894736842105" height="33.333333333333336" x="131.2543859649123" y="716.6666666666666" stroke="none" fill="hsl(261, 60%, 38%)" rx="2.0789473684210527"></rect><rect width="33.333333333333336" height="4.157894736842105" x="183.33333333333334" y="731.2543859649122" stroke="none" fill="hsl(261, 60%, 38%)" rx="2.0789473684210527"></rect><rect width="4.157894736842105" height="33.333333333333336" x="197.92105263157896" y="716.6666666666666" stroke="none" fill="hsl(261, 60%, 38%)" rx="2.0789473684210527"></rect><rect width="33.333333333333336" height="4.157894736842105" x="250.00000000000003" y="731.2543859649122" stroke="none" fill="hsl(261, 60%, 38%)" rx="2.0789473684210527"></rect><rect width="4.157894736842105" height="33.333333333333336" x="264.58771929824564" y="716.6666666666666" stroke="none" fill="hsl(261, 60%, 38%)" rx="2.0789473684210527"></rect><rect width="33.333333333333336" height="4.157894736842105" x="316.6666666666667" y="731.2543859649122" stroke="none" fill="hsl(261, 60%, 38%)" rx="2.0789473684210527"></rect><rect width="4.157894736842105" height="33.333333333333336" x="331.25438596491233" y="716.6666666666666" stroke="none" fill="hsl(261, 60%, 38%)" rx="2.0789473684210527"></rect><rect width="33.333333333333336" height="4.157894736842105" x="383.33333333333337" y="731.2543859649122" stroke="none" fill="hsl(261, 60%, 38%)" rx="2.0789473684210527"></rect><rect width="4.157894736842105" height="33.333333333333336" x="397.921052631579" y="716.6666666666666" stroke="none" fill="hsl(261, 60%, 38%)" rx="2.0789473684210527"></rect><rect width="33.333333333333336" height="4.157894736842105" x="450.00000000000006" y="731.2543859649122" stroke="none" fill="hsl(261, 60%, 38%)" rx="2.0789473684210527"></rect><rect width="4.157894736842105" height="33.333333333333336" x="464.5877192982457" y="716.6666666666666" stroke="none" fill="hsl(261, 60%, 38%)" rx="2.0789473684210527"></rect><rect width="33.333333333333336" height="4.157894736842105" x="516.6666666666667" y="731.2543859649122" stroke="none" fill="hsl(261, 60%, 38%)" rx="2.0789473684210527"></rect><rect width="4.157894736842105" height="33.333333333333336" x="531.2543859649123" y="716.6666666666666" stroke="none" fill="hsl(261, 60%, 38%)" rx="2.0789473684210527"></rect><rect width="33.333333333333336" height="4.157894736842105" x="583.3333333333334" y="731.2543859649122" stroke="none" fill="hsl(261, 60%, 38%)" rx="2.0789473684210527"></rect><rect width="4.157894736842105" height="33.333333333333336" x="597.921052631579" y="716.6666666666666" stroke="none" fill="hsl(261, 60%, 38%)" rx="2.0789473684210527"></rect><rect width="33.333333333333336" height="4.157894736842105" x="650" y="731.2543859649122" stroke="none" fill="hsl(261, 60%, 38%)" rx="2.0789473684210527"></rect><rect width="4.157894736842105" height="33.333333333333336" x="664.5877192982456" y="716.6666666666666" stroke="none" fill="hsl(261, 60%, 38%)" rx="2.0789473684210527"></rect><rect width="33.333333333333336" height="4.157894736842105" x="716.6666666666666" y="731.2543859649122" stroke="none" fill="hsl(261, 60%, 38%)" rx="2.0789473684210527"></rect><rect width="4.157894736842105" height="33.333333333333336" x="731.2543859649122" y="716.6666666666666" stroke="none" fill="hsl(261, 60%, 38%)" rx="2.0789473684210527"></rect><rect width="33.333333333333336" height="4.157894736842105" x="783.3333333333333" y="731.2543859649122" stroke="none" fill="hsl(261, 60%, 38%)" rx="2.0789473684210527"></rect><rect width="4.157894736842105" height="33.333333333333336" x="797.9210526315788" y="716.6666666666666" stroke="none" fill="hsl(261, 60%, 38%)" rx="2.0789473684210527"></rect><rect width="33.333333333333336" height="4.157894736842105" x="-16.666666666666668" y="797.9210526315788" stroke="none" fill="hsl(261, 60%, 38%)" rx="2.0789473684210527"></rect><rect width="4.157894736842105" height="33.333333333333336" x="-2.0789473684210527" y="783.3333333333333" stroke="none" fill="hsl(261, 60%, 38%)" rx="2.0789473684210527"></rect><rect width="33.333333333333336" height="4.157894736842105" x="50" y="797.9210526315788" stroke="none" fill="hsl(261, 60%, 38%)" rx="2.0789473684210527"></rect><rect width="4.157894736842105" height="33.333333333333336" x="64.58771929824562" y="783.3333333333333" stroke="none" fill="hsl(261, 60%, 38%)" rx="2.0789473684210527"></rect><rect width="33.333333333333336" height="4.157894736842105" x="116.66666666666667" y="797.9210526315788" stroke="none" fill="hsl(261, 60%, 38%)" rx="2.0789473684210527"></rect><rect width="4.157894736842105" height="33.333333333333336" x="131.2543859649123" y="783.3333333333333" stroke="none" fill="hsl(261, 60%, 38%)" rx="2.0789473684210527"></rect><rect width="33.333333333333336" height="4.157894736842105" x="183.33333333333334" y="797.9210526315788" stroke="none" fill="hsl(261, 60%, 38%)" rx="2.0789473684210527"></rect><rect width="4.157894736842105" height="33.333333333333336" x="197.92105263157896" y="783.3333333333333" stroke="none" fill="hsl(261, 60%, 38%)" rx="2.0789473684210527"></rect><rect width="33.333333333333336" height="4.157894736842105" x="250.00000000000003" y="797.9210526315788" stroke="none" fill="hsl(261, 60%, 38%)" rx="2.0789473684210527"></rect><rect width="4.157894736842105" height="33.333333333333336" x="264.58771929824564" y="783.3333333333333" stroke="none" fill="hsl(261, 60%, 38%)" rx="2.0789473684210527"></rect><rect width="33.333333333333336" height="4.157894736842105" x="316.6666666666667" y="797.9210526315788" stroke="none" fill="hsl(261, 60%, 38%)" rx="2.0789473684210527"></rect><rect width="4.157894736842105" height="33.333333333333336" x="331.25438596491233" y="783.3333333333333" stroke="none" fill="hsl(261, 60%, 38%)" rx="2.0789473684210527"></rect><rect width="33.333333333333336" height="4.157894736842105" x="383.33333333333337" y="797.9210526315788" stroke="none" fill="hsl(261, 60%, 38%)" rx="2.0789473684210527"></rect><rect width="4.157894736842105" height="33.333333333333336" x="397.921052631579" y="783.3333333333333" stroke="none" fill="hsl(261, 60%, 38%)" rx="2.0789473684210527"></rect><rect width="33.333333333333336" height="4.157894736842105" x="450.00000000000006" y="797.9210526315788" stroke="none" fill="hsl(261, 60%, 38%)" rx="2.0789473684210527"></rect><rect width="4.157894736842105" height="33.333333333333336" x="464.5877192982457" y="783.3333333333333" stroke="none" fill="hsl(261, 60%, 38%)" rx="2.0789473684210527"></rect><rect width="33.333333333333336" height="4.157894736842105" x="516.6666666666667" y="797.9210526315788" stroke="none" fill="hsl(261, 60%, 38%)" rx="2.0789473684210527"></rect><rect width="4.157894736842105" height="33.333333333333336" x="531.2543859649123" y="783.3333333333333" stroke="none" fill="hsl(261, 60%, 38%)" rx="2.0789473684210527"></rect><rect width="33.333333333333336" height="4.157894736842105" x="583.3333333333334" y="797.9210526315788" stroke="none" fill="hsl(261, 60%, 38%)" rx="2.0789473684210527"></rect><rect width="4.157894736842105" height="33.333333333333336" x="597.921052631579" y="783.3333333333333" stroke="none" fill="hsl(261, 60%, 38%)" rx="2.0789473684210527"></rect><rect width="33.333333333333336" height="4.157894736842105" x="650" y="797.9210526315788" stroke="none" fill="hsl(261, 60%, 38%)" rx="2.0789473684210527"></rect><rect width="4.157894736842105" height="33.333333333333336" x="664.5877192982456" y="783.3333333333333" stroke="none" fill="hsl(261, 60%, 38%)" rx="2.0789473684210527"></rect><rect width="33.333333333333336" height="4.157894736842105" x="716.6666666666666" y="797.9210526315788" stroke="none" fill="hsl(261, 60%, 38%)" rx="2.0789473684210527"></rect><rect width="4.157894736842105" height="33.333333333333336" x="731.2543859649122" y="783.3333333333333" stroke="none" fill="hsl(261, 60%, 38%)" rx="2.0789473684210527"></rect><rect width="33.333333333333336" height="4.157894736842105" x="783.3333333333333" y="797.9210526315788" stroke="none" fill="hsl(261, 60%, 38%)" rx="2.0789473684210527"></rect><rect width="4.157894736842105" height="33.333333333333336" x="797.9210526315788" y="783.3333333333333" stroke="none" fill="hsl(261, 60%, 38%)" rx="2.0789473684210527"></rect></g></svg>