<svg xmlns="http://www.w3.org/2000/svg" version="1.1" xmlns:xlink="http://www.w3.org/1999/xlink" xmlns:svgjs="http://svgjs.dev/svgjs" viewBox="0 0 800 800" opacity="1"><defs><linearGradient x1="50%" y1="0%" x2="50%" y2="100%" id="nnneon-grad"><stop stop-color="#9945FF" stop-opacity="1" offset="0%"></stop><stop stop-color="#14F195" stop-opacity="1" offset="100%"></stop></linearGradient><filter id="nnneon-filter" x="-100%" y="-100%" width="400%" height="400%" filterUnits="objectBoundingBox" primitiveUnits="userSpaceOnUse" color-interpolation-filters="sRGB">
	<feGaussianBlur stdDeviation="18 14" x="0%" y="0%" width="100%" height="100%" in="SourceGraphic" edgeMode="none" result="blur"></feGaussianBlur></filter><filter id="nnneon-filter2" x="-100%" y="-100%" width="400%" height="400%" filterUnits="objectBoundingBox" primitiveUnits="userSpaceOnUse" color-interpolation-filters="sRGB">
	<feGaussianBlur stdDeviation="3 17" x="0%" y="0%" width="100%" height="100%" in="SourceGraphic" edgeMode="none" result="blur"></feGaussianBlur></filter></defs><g stroke-width="6.5" stroke="url(#nnneon-grad)" fill="none"><path d="M400 236.610107421875L541.5000090417586 318.3050566007448V481.6949549584844L400 563.3899041373543L258.4999909582413 481.6949549584844V318.3050566007448L400 236.610107421875Z " filter="url(#nnneon-filter)"></path><path d="M400 236.610107421875L541.5000090417586 318.3050566007448V481.6949549584844L400 563.3899041373543L258.4999909582413 481.6949549584844V318.3050566007448L400 236.610107421875Z " filter="url(#nnneon-filter2)" opacity="0.22"></path><path d="M400 236.610107421875L541.5000090417586 318.3050566007448V481.6949549584844L400 563.3899041373543L258.4999909582413 481.6949549584844V318.3050566007448L400 236.610107421875Z " filter="url(#nnneon-filter2)" opacity="0.22"></path><path d="M400 236.610107421875L541.5000090417586 318.3050566007448V481.6949549584844L400 563.3899041373543L258.4999909582413 481.6949549584844V318.3050566007448L400 236.610107421875Z "></path></g></svg>